<svg width="20" height="20" viewBox="0 0 20 20" fill="none" xmlns="http://www.w3.org/2000/svg">
<g clip-path="url(#clip0_7407_1686)">
<path d="M14.0625 11.875C14.7529 11.875 15.3125 11.3154 15.3125 10.625C15.3125 9.93464 14.7529 9.375 14.0625 9.375C13.3721 9.375 12.8125 9.93464 12.8125 10.625C12.8125 11.3154 13.3721 11.875 14.0625 11.875Z" fill="#FCFCFD"/>
<path d="M3.125 4.74453V14.0625C3.125 14.4769 3.28962 14.8743 3.58265 15.1674C3.87567 15.4604 4.2731 15.625 4.6875 15.625H15.9375C16.3519 15.625 16.7493 15.4604 17.0424 15.1674C17.3354 14.8743 17.5 14.4769 17.5 14.0625V7.8125C17.5 7.3981 17.3354 7.00067 17.0424 6.70765C16.7493 6.41462 16.3519 6.25 15.9375 6.25H4.725C3.87735 6.25 3.15625 5.59141 3.125 4.74453ZM3.125 4.74453C3.11734 4.53459 3.15208 4.32526 3.22716 4.12906C3.30225 3.93286 3.41612 3.75381 3.56199 3.60262C3.70785 3.45144 3.8827 3.33122 4.07609 3.24915C4.26947 3.16709 4.47742 3.12486 4.6875 3.125H15" stroke="#FCFCFD" stroke-width="1.5" stroke-linecap="round" stroke-linejoin="round"/>
</g>
<defs>
<clipPath id="clip0_7407_1686">
<rect width="20" height="20" fill="white"/>
</clipPath>
</defs>
</svg>
