<svg width="20" height="20" viewBox="0 0 20 20" fill="none" xmlns="http://www.w3.org/2000/svg">
<path d="M18.4375 11.2501C18.4361 12.6586 17.8759 14.009 16.8799 15.005C15.8839 16.001 14.5335 16.5612 13.125 16.5626H6.25C6.00136 16.5626 5.7629 16.4638 5.58709 16.288C5.41127 16.1122 5.3125 15.8738 5.3125 15.6251C5.3125 15.3765 5.41127 15.138 5.58709 14.9622C5.7629 14.7864 6.00136 14.6876 6.25 14.6876H13.125C14.0367 14.6876 14.911 14.3254 15.5557 13.6808C16.2003 13.0361 16.5625 12.1618 16.5625 11.2501C16.5625 10.3384 16.2003 9.46409 15.5557 8.81943C14.911 8.17478 14.0367 7.81261 13.125 7.81261H4.76562L6.91562 9.96183C7.09174 10.138 7.19069 10.3768 7.19069 10.6259C7.19069 10.875 7.09174 11.1138 6.91562 11.29C6.7395 11.4661 6.50063 11.565 6.25156 11.565C6.00249 11.565 5.76362 11.4661 5.5875 11.29L1.8375 7.53996C1.7501 7.45286 1.68075 7.34937 1.63343 7.23541C1.58612 7.12146 1.56176 6.99928 1.56176 6.87589C1.56176 6.75251 1.58612 6.63033 1.63343 6.51638C1.68075 6.40242 1.7501 6.29893 1.8375 6.21183L5.5875 2.46183C5.76362 2.28571 6.00249 2.18677 6.25156 2.18677C6.50063 2.18677 6.7395 2.28571 6.91562 2.46183C7.09174 2.63795 7.19069 2.87682 7.19069 3.12589C7.19069 3.37497 7.09174 3.61384 6.91562 3.78996L4.76562 5.93761H13.125C14.5335 5.93927 15.8837 6.49951 16.8797 7.49543C17.8756 8.49136 18.4358 9.84166 18.4375 11.2501Z" fill="#FCFCFD"/>
</svg>
