<svg width="18" height="19" viewBox="0 0 18 19" fill="none" xmlns="http://www.w3.org/2000/svg">
<path d="M18 9.25004V18.25C18 18.449 17.921 18.6397 17.7803 18.7804C17.6397 18.921 17.4489 19 17.25 19H12C11.8011 19 11.6103 18.921 11.4697 18.7804C11.329 18.6397 11.25 18.449 11.25 18.25V13.375C11.25 13.2756 11.2105 13.1802 11.1402 13.1099C11.0698 13.0395 10.9745 13 10.875 13H7.125C7.02554 13 6.93016 13.0395 6.85983 13.1099C6.78951 13.1802 6.75 13.2756 6.75 13.375V18.25C6.75 18.449 6.67098 18.6397 6.53033 18.7804C6.38968 18.921 6.19891 19 6 19H0.75C0.551088 19 0.360322 18.921 0.21967 18.7804C0.0790178 18.6397 0 18.449 0 18.25V9.25004C0.000184396 8.85228 0.15834 8.47089 0.439687 8.18973L7.93969 0.689725C8.22096 0.408633 8.60235 0.250732 9 0.250732C9.39765 0.250732 9.77904 0.408633 10.0603 0.689725L17.5603 8.18973C17.8417 8.47089 17.9998 8.85228 18 9.25004Z" fill="#1C2024"/>
</svg>
